<svg xmlns="http://www.w3.org/2000/svg" xmlns:xlink="http://www.w3.org/1999/xlink" width="500" zoomAndPan="magnify" viewBox="0 0 375 374.999991" height="500" preserveAspectRatio="xMidYMid meet" version="1.2"><defs/><g id="8d15eca918"><rect x="0" width="375" y="0" height="374.999991" style="fill:#ffffff;fill-opacity:1;stroke:none;"/><rect x="0" width="375" y="0" height="374.999991" style="fill:#fffcf5;fill-opacity:1;stroke:none;"/><g style="fill:#000000;fill-opacity:1;"><g transform="translate(72.088375, 189.976992)"><path style="stroke:none" d="M 7.078125 0 L 3.140625 0 L 3.140625 -25.6875 L 7.078125 -25.6875 Z M 7.328125 -31.1875 L 2.875 -31.1875 L 2.875 -32.765625 L 7.328125 -32.765625 Z M 7.328125 -31.1875 "/></g></g><g style="fill:#000000;fill-opacity:1;"><g transform="translate(82.310247, 189.976992)"><path style="stroke:none" d="M 15.203125 -26.203125 C 17.265625 -26.203125 19.085938 -25.703125 20.671875 -24.703125 C 22.265625 -23.710938 23.5 -22.359375 24.375 -20.640625 C 25.25 -18.929688 25.6875 -17.03125 25.6875 -14.9375 L 25.6875 0 L 21.75 0 L 21.75 -14.9375 C 21.75 -17.207031 21.117188 -19.039062 19.859375 -20.4375 C 18.609375 -21.84375 16.878906 -22.546875 14.671875 -22.546875 C 13.273438 -22.546875 12 -22.222656 10.84375 -21.578125 C 9.695312 -20.929688 8.78125 -20.03125 8.09375 -18.875 C 7.414062 -17.71875 7.078125 -16.40625 7.078125 -14.9375 L 7.078125 0 L 3.140625 0 L 3.140625 -25.6875 L 7.078125 -25.6875 L 7.078125 -22.28125 C 8.128906 -23.570312 9.34375 -24.546875 10.71875 -25.203125 C 12.101562 -25.867188 13.597656 -26.203125 15.203125 -26.203125 Z M 15.203125 -26.203125 "/></g></g><g style="fill:#000000;fill-opacity:1;"><g transform="translate(109.83058, 189.976992)"><path style="stroke:none" d="M 12.890625 -6.078125 L 21.546875 -25.6875 L 25.6875 -25.6875 L 14.15625 0 L 11.53125 0 L 0 -25.6875 L 4.25 -25.6875 Z M 12.890625 -6.078125 "/></g></g><g style="fill:#000000;fill-opacity:1;"><g transform="translate(134.992068, 189.976992)"><path style="stroke:none" d="M 14.734375 0.53125 C 12.285156 0.53125 10.035156 -0.0507812 7.984375 -1.21875 C 5.941406 -2.394531 4.316406 -4.003906 3.109375 -6.046875 C 1.910156 -8.097656 1.3125 -10.363281 1.3125 -12.84375 C 1.3125 -15.320312 1.910156 -17.582031 3.109375 -19.625 C 4.316406 -21.675781 5.941406 -23.285156 7.984375 -24.453125 C 10.035156 -25.617188 12.285156 -26.203125 14.734375 -26.203125 C 17.179688 -26.203125 19.425781 -25.617188 21.46875 -24.453125 C 23.507812 -23.285156 25.132812 -21.675781 26.34375 -19.625 C 27.550781 -17.582031 28.15625 -15.320312 28.15625 -12.84375 C 28.15625 -10.363281 27.550781 -8.097656 26.34375 -6.046875 C 25.132812 -4.003906 23.507812 -2.394531 21.46875 -1.21875 C 19.425781 -0.0507812 17.179688 0.53125 14.734375 0.53125 Z M 14.734375 -3.140625 C 16.441406 -3.140625 18.003906 -3.566406 19.421875 -4.421875 C 20.835938 -5.285156 21.960938 -6.453125 22.796875 -7.921875 C 23.640625 -9.390625 24.0625 -11.03125 24.0625 -12.84375 C 24.0625 -14.65625 23.640625 -16.296875 22.796875 -17.765625 C 21.960938 -19.234375 20.835938 -20.394531 19.421875 -21.25 C 18.003906 -22.113281 16.441406 -22.546875 14.734375 -22.546875 C 13.015625 -22.546875 11.445312 -22.113281 10.03125 -21.25 C 8.625 -20.394531 7.5 -19.234375 6.65625 -17.765625 C 5.820312 -16.296875 5.40625 -14.65625 5.40625 -12.84375 C 5.40625 -11.03125 5.820312 -9.390625 6.65625 -7.921875 C 7.5 -6.453125 8.625 -5.285156 10.03125 -4.421875 C 11.445312 -3.566406 13.015625 -3.140625 14.734375 -3.140625 Z M 14.734375 -3.140625 "/></g></g><g style="fill:#000000;fill-opacity:1;"><g transform="translate(164.452018, 189.976992)"><path style="stroke:none" d="M 7.078125 0 L 3.140625 0 L 3.140625 -25.6875 L 7.078125 -25.6875 Z M 7.328125 -31.1875 L 2.875 -31.1875 L 2.875 -32.765625 L 7.328125 -32.765625 Z M 7.328125 -31.1875 "/></g></g><g style="fill:#000000;fill-opacity:1;"><g transform="translate(174.67389, 189.976992)"><path style="stroke:none" d="M 14.46875 0.53125 C 12.09375 0.53125 9.898438 -0.0507812 7.890625 -1.21875 C 5.878906 -2.394531 4.28125 -4.003906 3.09375 -6.046875 C 1.90625 -8.097656 1.3125 -10.363281 1.3125 -12.84375 C 1.3125 -15.320312 1.90625 -17.582031 3.09375 -19.625 C 4.28125 -21.675781 5.878906 -23.285156 7.890625 -24.453125 C 9.898438 -25.617188 12.09375 -26.203125 14.46875 -26.203125 C 17.363281 -26.203125 19.945312 -25.351562 22.21875 -23.65625 C 24.5 -21.96875 26.054688 -19.585938 26.890625 -16.515625 L 22.796875 -16.515625 C 22.097656 -18.429688 21 -19.914062 19.5 -20.96875 C 18 -22.019531 16.320312 -22.546875 14.46875 -22.546875 C 12.820312 -22.546875 11.300781 -22.113281 9.90625 -21.25 C 8.507812 -20.394531 7.410156 -19.234375 6.609375 -17.765625 C 5.804688 -16.296875 5.40625 -14.65625 5.40625 -12.84375 C 5.40625 -11.03125 5.804688 -9.390625 6.609375 -7.921875 C 7.410156 -6.453125 8.507812 -5.285156 9.90625 -4.421875 C 11.300781 -3.566406 12.820312 -3.140625 14.46875 -3.140625 C 16.320312 -3.140625 18 -3.664062 19.5 -4.71875 C 21 -5.769531 22.097656 -7.253906 22.796875 -9.171875 L 26.890625 -9.171875 C 26.054688 -6.097656 24.5 -3.710938 22.21875 -2.015625 C 19.945312 -0.316406 17.363281 0.53125 14.46875 0.53125 Z M 14.46875 0.53125 "/></g></g><g style="fill:#000000;fill-opacity:1;"><g transform="translate(202.613659, 189.976992)"><path style="stroke:none" d="M 14.203125 -26.203125 C 16.546875 -26.203125 18.6875 -25.660156 20.625 -24.578125 C 22.5625 -23.492188 24.082031 -22.019531 25.1875 -20.15625 C 26.289062 -18.289062 26.84375 -16.203125 26.84375 -13.890625 C 26.84375 -13.296875 26.820312 -12.859375 26.78125 -12.578125 L 5.40625 -12.578125 C 5.46875 -9.742188 6.296875 -7.460938 7.890625 -5.734375 C 9.484375 -4.003906 11.585938 -3.140625 14.203125 -3.140625 C 16.191406 -3.140625 17.882812 -3.617188 19.28125 -4.578125 C 20.6875 -5.546875 21.738281 -6.988281 22.4375 -8.90625 L 26.53125 -8.90625 C 25.613281 -5.832031 24.085938 -3.488281 21.953125 -1.875 C 19.828125 -0.269531 17.242188 0.53125 14.203125 0.53125 C 11.796875 0.53125 9.601562 -0.0507812 7.625 -1.21875 C 5.65625 -2.394531 4.109375 -3.992188 2.984375 -6.015625 C 1.867188 -8.046875 1.3125 -10.320312 1.3125 -12.84375 C 1.3125 -15.363281 1.867188 -17.632812 2.984375 -19.65625 C 4.109375 -21.6875 5.65625 -23.285156 7.625 -24.453125 C 9.601562 -25.617188 11.796875 -26.203125 14.203125 -26.203125 Z M 14.203125 -22.546875 C 11.648438 -22.546875 9.585938 -21.738281 8.015625 -20.125 C 6.441406 -18.519531 5.570312 -16.351562 5.40625 -13.625 L 22.90625 -13.625 C 22.769531 -16.457031 21.90625 -18.648438 20.3125 -20.203125 C 18.71875 -21.765625 16.679688 -22.546875 14.203125 -22.546875 Z M 14.203125 -22.546875 "/></g></g><g style="fill:#000000;fill-opacity:1;"><g transform="translate(230.763112, 189.976992)"><path style="stroke:none" d="M 31.453125 -26.203125 C 33.335938 -26.203125 35.015625 -25.722656 36.484375 -24.765625 C 37.953125 -23.804688 39.097656 -22.492188 39.921875 -20.828125 C 40.742188 -19.171875 41.15625 -17.296875 41.15625 -15.203125 L 41.15625 0 L 37.21875 0 L 37.21875 -15.203125 C 37.21875 -17.335938 36.648438 -19.09375 35.515625 -20.46875 C 34.378906 -21.851562 32.847656 -22.546875 30.921875 -22.546875 C 29.703125 -22.546875 28.578125 -22.222656 27.546875 -21.578125 C 26.515625 -20.929688 25.679688 -20.046875 25.046875 -18.921875 C 24.421875 -17.804688 24.109375 -16.566406 24.109375 -15.203125 L 24.109375 0 L 20.1875 0 L 20.1875 -15.203125 C 20.1875 -17.335938 19.617188 -19.09375 18.484375 -20.46875 C 17.347656 -21.851562 15.816406 -22.546875 13.890625 -22.546875 C 12.671875 -22.546875 11.546875 -22.222656 10.515625 -21.578125 C 9.484375 -20.929688 8.648438 -20.046875 8.015625 -18.921875 C 7.390625 -17.804688 7.078125 -16.566406 7.078125 -15.203125 L 7.078125 0 L 3.140625 0 L 3.140625 -25.6875 L 7.078125 -25.6875 L 7.078125 -22.28125 C 7.984375 -23.570312 9.066406 -24.546875 10.328125 -25.203125 C 11.585938 -25.867188 12.953125 -26.203125 14.421875 -26.203125 C 16.203125 -26.203125 17.851562 -25.722656 19.375 -24.765625 C 20.894531 -23.804688 22.035156 -22.539062 22.796875 -20.96875 C 23.710938 -22.644531 24.921875 -23.9375 26.421875 -24.84375 C 27.921875 -25.75 29.597656 -26.203125 31.453125 -26.203125 Z M 31.453125 -26.203125 "/></g></g><g style="fill:#000000;fill-opacity:1;"><g transform="translate(274.795784, 189.976992)"><path style="stroke:none" d="M 14.046875 0.53125 C 11.847656 0.53125 9.898438 0.0507812 8.203125 -0.90625 C 6.503906 -1.875 5.191406 -3.210938 4.265625 -4.921875 C 3.347656 -6.640625 2.890625 -8.582031 2.890625 -10.75 L 2.890625 -25.6875 L 6.8125 -25.6875 L 6.8125 -10.75 C 6.8125 -8.507812 7.472656 -6.679688 8.796875 -5.265625 C 10.128906 -3.847656 11.878906 -3.140625 14.046875 -3.140625 C 16.210938 -3.140625 17.957031 -3.847656 19.28125 -5.265625 C 20.613281 -6.679688 21.28125 -8.507812 21.28125 -10.75 L 21.28125 -25.6875 L 25.21875 -25.6875 L 25.21875 -10.75 C 25.21875 -8.582031 24.753906 -6.640625 23.828125 -4.921875 C 22.898438 -3.210938 21.585938 -1.875 19.890625 -0.90625 C 18.203125 0.0507812 16.253906 0.53125 14.046875 0.53125 Z M 14.046875 0.53125 "/></g></g><g style="fill:#737373;fill-opacity:1;"><g transform="translate(103.200504, 205.528093)"><path style="stroke:none" d="M 2.53125 0.09375 C 2.09375 0.09375 1.707031 0.00390625 1.375 -0.171875 C 1.050781 -0.359375 0.796875 -0.613281 0.609375 -0.9375 C 0.421875 -1.257812 0.320312 -1.632812 0.3125 -2.0625 L 1.03125 -2.0625 C 1.050781 -1.613281 1.191406 -1.253906 1.453125 -0.984375 C 1.710938 -0.710938 2.070312 -0.578125 2.53125 -0.578125 C 2.90625 -0.578125 3.207031 -0.671875 3.4375 -0.859375 C 3.664062 -1.054688 3.78125 -1.304688 3.78125 -1.609375 C 3.78125 -1.859375 3.710938 -2.0625 3.578125 -2.21875 C 3.453125 -2.382812 3.296875 -2.507812 3.109375 -2.59375 C 2.921875 -2.6875 2.660156 -2.785156 2.328125 -2.890625 C 1.941406 -3.023438 1.628906 -3.148438 1.390625 -3.265625 C 1.160156 -3.378906 0.957031 -3.550781 0.78125 -3.78125 C 0.613281 -4.019531 0.53125 -4.332031 0.53125 -4.71875 C 0.53125 -5.03125 0.613281 -5.3125 0.78125 -5.5625 C 0.957031 -5.8125 1.1875 -6.007812 1.46875 -6.15625 C 1.757812 -6.300781 2.09375 -6.375 2.46875 -6.375 C 2.84375 -6.375 3.179688 -6.285156 3.484375 -6.109375 C 3.785156 -5.941406 4.023438 -5.707031 4.203125 -5.40625 C 4.378906 -5.101562 4.476562 -4.753906 4.5 -4.359375 L 3.78125 -4.359375 C 3.757812 -4.773438 3.625 -5.101562 3.375 -5.34375 C 3.132812 -5.582031 2.820312 -5.703125 2.4375 -5.703125 C 2.101562 -5.703125 1.828125 -5.613281 1.609375 -5.4375 C 1.390625 -5.269531 1.28125 -5.03125 1.28125 -4.71875 C 1.28125 -4.488281 1.34375 -4.296875 1.46875 -4.140625 C 1.59375 -3.992188 1.742188 -3.878906 1.921875 -3.796875 C 2.109375 -3.710938 2.363281 -3.613281 2.6875 -3.5 C 3.070312 -3.375 3.390625 -3.25 3.640625 -3.125 C 3.890625 -3 4.097656 -2.8125 4.265625 -2.5625 C 4.441406 -2.320312 4.53125 -2.003906 4.53125 -1.609375 C 4.53125 -1.285156 4.441406 -0.992188 4.265625 -0.734375 C 4.085938 -0.472656 3.847656 -0.269531 3.546875 -0.125 C 3.242188 0.0195312 2.90625 0.09375 2.53125 0.09375 Z M 2.53125 0.09375 "/></g></g><g style="fill:#737373;fill-opacity:1;"><g transform="translate(110.712991, 205.528093)"><path style="stroke:none" d="M 5.765625 0 L 5 0 L 4.265625 -1.84375 L 1.59375 -1.84375 L 0.859375 0 L 0.109375 0 L 2.671875 -6.28125 L 3.203125 -6.28125 Z M 2.921875 -5.21875 L 1.65625 -2.015625 L 4.203125 -2.015625 Z M 2.921875 -5.21875 "/></g></g><g style="fill:#737373;fill-opacity:1;"><g transform="translate(119.348751, 205.528093)"><path style="stroke:none" d="M 4.71875 -3.328125 L 4.71875 -6.28125 L 5.4375 -6.28125 L 5.4375 0 L 4.71875 0 L 4.71875 -3.140625 L 1.390625 -3.140625 L 1.390625 0 L 0.671875 0 L 0.671875 -6.28125 L 1.390625 -6.28125 L 1.390625 -3.328125 Z M 4.71875 -3.328125 "/></g></g><g style="fill:#737373;fill-opacity:1;"><g transform="translate(128.218161, 205.528093)"><path style="stroke:none" d="M 5.765625 0 L 5 0 L 4.265625 -1.84375 L 1.59375 -1.84375 L 0.859375 0 L 0.109375 0 L 2.671875 -6.28125 L 3.203125 -6.28125 Z M 2.921875 -5.21875 L 1.65625 -2.015625 L 4.203125 -2.015625 Z M 2.921875 -5.21875 "/></g></g><g style="fill:#737373;fill-opacity:1;"><g transform="translate(136.853921, 205.528093)"><path style="stroke:none" d="M 3.34375 -3.375 C 3.71875 -3.257812 4.015625 -3.066406 4.234375 -2.796875 C 4.453125 -2.535156 4.5625 -2.207031 4.5625 -1.8125 C 4.5625 -1.46875 4.46875 -1.15625 4.28125 -0.875 C 4.101562 -0.601562 3.851562 -0.390625 3.53125 -0.234375 C 3.207031 -0.078125 2.835938 0 2.421875 0 L 0.671875 0 L 0.671875 -6.28125 L 2.328125 -6.28125 C 2.722656 -6.28125 3.066406 -6.207031 3.359375 -6.0625 C 3.660156 -5.925781 3.890625 -5.734375 4.046875 -5.484375 C 4.203125 -5.242188 4.28125 -4.96875 4.28125 -4.65625 C 4.28125 -4.363281 4.195312 -4.101562 4.03125 -3.875 C 3.875 -3.644531 3.644531 -3.476562 3.34375 -3.375 Z M 1.390625 -5.609375 L 1.390625 -3.40625 L 2.328125 -3.40625 C 2.710938 -3.40625 3.007812 -3.503906 3.21875 -3.703125 C 3.4375 -3.898438 3.546875 -4.171875 3.546875 -4.515625 C 3.546875 -4.847656 3.4375 -5.113281 3.21875 -5.3125 C 3.007812 -5.507812 2.710938 -5.609375 2.328125 -5.609375 Z M 2.421875 -0.671875 C 2.835938 -0.671875 3.171875 -0.789062 3.421875 -1.03125 C 3.679688 -1.269531 3.8125 -1.578125 3.8125 -1.953125 C 3.8125 -2.335938 3.679688 -2.644531 3.421875 -2.875 C 3.171875 -3.113281 2.835938 -3.234375 2.421875 -3.234375 L 1.390625 -3.234375 L 1.390625 -0.671875 Z M 2.421875 -0.671875 "/></g></g><g style="fill:#737373;fill-opacity:1;"><g transform="translate(144.321467, 205.528093)"><path style="stroke:none" d="M 5.765625 0 L 5 0 L 4.265625 -1.84375 L 1.59375 -1.84375 L 0.859375 0 L 0.109375 0 L 2.671875 -6.28125 L 3.203125 -6.28125 Z M 2.921875 -5.21875 L 1.65625 -2.015625 L 4.203125 -2.015625 Z M 2.921875 -5.21875 "/></g></g><g style="fill:#737373;fill-opacity:1;"><g transform="translate(152.418055, 205.528093)"><path style="stroke:none" d="M 2.46875 0 L 1.75 0 L 1.75 -5.609375 L 0.140625 -5.609375 L 0.140625 -6.28125 L 4.09375 -6.28125 L 4.09375 -5.609375 L 2.46875 -5.609375 Z M 2.46875 0 "/></g></g><g style="fill:#737373;fill-opacity:1;"><g transform="translate(159.130764, 205.528093)"><path style="stroke:none" d=""/></g></g><g style="fill:#737373;fill-opacity:1;"><g transform="translate(164.270874, 205.528093)"><path style="stroke:none" d="M 2.9375 0.09375 C 2.46875 0.09375 2.054688 -0.00390625 1.703125 -0.203125 C 1.347656 -0.410156 1.070312 -0.695312 0.875 -1.0625 C 0.675781 -1.425781 0.578125 -1.84375 0.578125 -2.3125 L 0.578125 -6.28125 L 1.296875 -6.28125 L 1.296875 -2.3125 C 1.296875 -1.789062 1.441406 -1.367188 1.734375 -1.046875 C 2.035156 -0.734375 2.4375 -0.578125 2.9375 -0.578125 C 3.4375 -0.578125 3.832031 -0.734375 4.125 -1.046875 C 4.425781 -1.367188 4.578125 -1.789062 4.578125 -2.3125 L 4.578125 -6.28125 L 5.296875 -6.28125 L 5.296875 -2.3125 C 5.296875 -1.84375 5.195312 -1.425781 5 -1.0625 C 4.800781 -0.695312 4.523438 -0.410156 4.171875 -0.203125 C 3.816406 -0.00390625 3.40625 0.09375 2.9375 0.09375 Z M 2.9375 0.09375 "/></g></g><g style="fill:#737373;fill-opacity:1;"><g transform="translate(172.906634, 205.528093)"><path style="stroke:none" d="M 6.640625 -6.28125 L 7.40625 0 L 6.6875 0 L 6.09375 -5.125 L 4.046875 0 L 3.75 0 L 1.65625 -4.703125 L 1.109375 0 L 0.40625 0 L 1.171875 -6.28125 L 1.6875 -6.28125 L 4.140625 -0.765625 L 6.359375 -6.28125 Z M 6.640625 -6.28125 "/></g></g><g style="fill:#737373;fill-opacity:1;"><g transform="translate(183.483431, 205.528093)"><path style="stroke:none" d="M 5.296875 0 L 4.453125 0 L 2.078125 -3.1875 L 1.390625 -3.1875 L 1.390625 0 L 0.671875 0 L 0.671875 -6.28125 L 1.390625 -6.28125 L 1.390625 -3.375 L 2.078125 -3.375 L 4.296875 -6.28125 L 5.078125 -6.28125 L 2.796875 -3.328125 Z M 5.296875 0 "/></g></g><g style="fill:#737373;fill-opacity:1;"><g transform="translate(191.562045, 205.528093)"><path style="stroke:none" d="M 6.640625 -6.28125 L 7.40625 0 L 6.6875 0 L 6.09375 -5.125 L 4.046875 0 L 3.75 0 L 1.65625 -4.703125 L 1.109375 0 L 0.40625 0 L 1.171875 -6.28125 L 1.6875 -6.28125 L 4.140625 -0.765625 L 6.359375 -6.28125 Z M 6.640625 -6.28125 "/></g></g><g style="fill:#737373;fill-opacity:1;"><g transform="translate(202.138841, 205.528093)"><path style="stroke:none" d=""/></g></g><g style="fill:#737373;fill-opacity:1;"><g transform="translate(207.278951, 205.528093)"><path style="stroke:none" d="M 6.640625 -6.28125 L 7.40625 0 L 6.6875 0 L 6.09375 -5.125 L 4.046875 0 L 3.75 0 L 1.65625 -4.703125 L 1.109375 0 L 0.40625 0 L 1.171875 -6.28125 L 1.6875 -6.28125 L 4.140625 -0.765625 L 6.359375 -6.28125 Z M 6.640625 -6.28125 "/></g></g><g style="fill:#737373;fill-opacity:1;"><g transform="translate(217.855747, 205.528093)"><path style="stroke:none" d="M 5.765625 0 L 5 0 L 4.265625 -1.84375 L 1.59375 -1.84375 L 0.859375 0 L 0.109375 0 L 2.671875 -6.28125 L 3.203125 -6.28125 Z M 2.921875 -5.21875 L 1.65625 -2.015625 L 4.203125 -2.015625 Z M 2.921875 -5.21875 "/></g></g><g style="fill:#737373;fill-opacity:1;"><g transform="translate(226.401649, 205.528093)"><path style="stroke:none" d="M 2.53125 0.09375 C 2.09375 0.09375 1.707031 0.00390625 1.375 -0.171875 C 1.050781 -0.359375 0.796875 -0.613281 0.609375 -0.9375 C 0.421875 -1.257812 0.320312 -1.632812 0.3125 -2.0625 L 1.03125 -2.0625 C 1.050781 -1.613281 1.191406 -1.253906 1.453125 -0.984375 C 1.710938 -0.710938 2.070312 -0.578125 2.53125 -0.578125 C 2.90625 -0.578125 3.207031 -0.671875 3.4375 -0.859375 C 3.664062 -1.054688 3.78125 -1.304688 3.78125 -1.609375 C 3.78125 -1.859375 3.710938 -2.0625 3.578125 -2.21875 C 3.453125 -2.382812 3.296875 -2.507812 3.109375 -2.59375 C 2.921875 -2.6875 2.660156 -2.785156 2.328125 -2.890625 C 1.941406 -3.023438 1.628906 -3.148438 1.390625 -3.265625 C 1.160156 -3.378906 0.957031 -3.550781 0.78125 -3.78125 C 0.613281 -4.019531 0.53125 -4.332031 0.53125 -4.71875 C 0.53125 -5.03125 0.613281 -5.3125 0.78125 -5.5625 C 0.957031 -5.8125 1.1875 -6.007812 1.46875 -6.15625 C 1.757812 -6.300781 2.09375 -6.375 2.46875 -6.375 C 2.84375 -6.375 3.179688 -6.285156 3.484375 -6.109375 C 3.785156 -5.941406 4.023438 -5.707031 4.203125 -5.40625 C 4.378906 -5.101562 4.476562 -4.753906 4.5 -4.359375 L 3.78125 -4.359375 C 3.757812 -4.773438 3.625 -5.101562 3.375 -5.34375 C 3.132812 -5.582031 2.820312 -5.703125 2.4375 -5.703125 C 2.101562 -5.703125 1.828125 -5.613281 1.609375 -5.4375 C 1.390625 -5.269531 1.28125 -5.03125 1.28125 -4.71875 C 1.28125 -4.488281 1.34375 -4.296875 1.46875 -4.140625 C 1.59375 -3.992188 1.742188 -3.878906 1.921875 -3.796875 C 2.109375 -3.710938 2.363281 -3.613281 2.6875 -3.5 C 3.070312 -3.375 3.390625 -3.25 3.640625 -3.125 C 3.890625 -3 4.097656 -2.8125 4.265625 -2.5625 C 4.441406 -2.320312 4.53125 -2.003906 4.53125 -1.609375 C 4.53125 -1.285156 4.441406 -0.992188 4.265625 -0.734375 C 4.085938 -0.472656 3.847656 -0.269531 3.546875 -0.125 C 3.242188 0.0195312 2.90625 0.09375 2.53125 0.09375 Z M 2.53125 0.09375 "/></g></g><g style="fill:#737373;fill-opacity:1;"><g transform="translate(233.914136, 205.528093)"><path style="stroke:none" d="M 5.765625 0 L 5 0 L 4.265625 -1.84375 L 1.59375 -1.84375 L 0.859375 0 L 0.109375 0 L 2.671875 -6.28125 L 3.203125 -6.28125 Z M 2.921875 -5.21875 L 1.65625 -2.015625 L 4.203125 -2.015625 Z M 2.921875 -5.21875 "/></g></g><g style="fill:#737373;fill-opacity:1;"><g transform="translate(242.100582, 205.528093)"><path style="stroke:none" d=""/></g></g><g style="fill:#737373;fill-opacity:1;"><g transform="translate(247.240692, 205.528093)"><path style="stroke:none" d="M 5.296875 0 L 4.453125 0 L 2.078125 -3.1875 L 1.390625 -3.1875 L 1.390625 0 L 0.671875 0 L 0.671875 -6.28125 L 1.390625 -6.28125 L 1.390625 -3.375 L 2.078125 -3.375 L 4.296875 -6.28125 L 5.078125 -6.28125 L 2.796875 -3.328125 Z M 5.296875 0 "/></g></g><g style="fill:#737373;fill-opacity:1;"><g transform="translate(255.319306, 205.528093)"><path style="stroke:none" d="M 1.4375 0 L 0.71875 0 L 0.71875 -6.28125 L 1.4375 -6.28125 Z M 1.4375 0 "/></g></g><g style="fill:#737373;fill-opacity:1;"><g transform="translate(260.234759, 205.528093)"><path style="stroke:none" d="M 5.28125 -0.6875 L 5.28125 -6.28125 L 5.96875 -6.28125 L 5.96875 0 L 5.546875 0 L 1.375 -5.59375 L 1.375 0 L 0.671875 0 L 0.671875 -6.28125 L 1.109375 -6.28125 Z M 5.28125 -0.6875 "/></g></g><g style="fill:#737373;fill-opacity:1;"><g transform="translate(269.643342, 205.528093)"><path style="stroke:none" d="M 1.4375 0 L 0.71875 0 L 0.71875 -6.28125 L 1.4375 -6.28125 Z M 1.4375 0 "/></g></g></g></svg>